<svg width="26" height="26" viewBox="0 0 26 26" fill="none" xmlns="http://www.w3.org/2000/svg">
<path d="M4.7954 22.1008L2.97052 1.625H23.0295L21.2022 22.0976L12.9878 24.375L4.7954 22.1008Z" fill="#1572B6"/>
<path d="M13 22.6346L19.6381 20.7943L21.1997 3.29956H13V22.6346Z" fill="#33A9DC"/>
<path d="M13 10.7177H16.3231L16.5522 8.14611H13V5.63467H19.2969L19.2368 6.30824L18.6201 13.2291H13V10.7177Z" fill="white"/>
<path d="M13.0154 17.2396L13.0041 17.2429L10.2074 16.4872L10.0287 14.4844H7.50751L7.85932 18.4275L13.0033 19.8559L13.0154 19.8526V17.2396Z" fill="#EBEBEB"/>
<path d="M16.1094 13.1227L15.8072 16.4856L13.0065 17.2412V19.8542L18.1545 18.4275L18.1927 18.0034L18.629 13.1227H16.1094Z" fill="white"/>
<path d="M13.009 5.63467V8.14611H6.94284L6.89246 7.58142L6.7779 6.30824L6.71777 5.63467H13.009ZM13 10.7177V13.2291H10.2383L10.188 12.6644L10.0742 11.3912L10.0141 10.7177H13Z" fill="#EBEBEB"/>
</svg>
