<svg width="40" height="40" viewBox="0 0 40 40" fill="none" xmlns="http://www.w3.org/2000/svg">
<path d="M7.35484 33.8968L4.55597 2.49232H35.3211L32.5185 33.8918L19.9199 37.3848L7.35484 33.8968Z" fill="#1572B6"/>
<path d="M19.9385 34.7155L30.1197 31.893L32.5148 5.06065H19.9385V34.7155Z" fill="#33A9DC"/>
<path d="M19.9385 16.4381H25.0353L25.3867 12.494H19.9385V8.64212H29.5963L29.5041 9.67519L28.5582 20.29H19.9385V16.4381Z" fill="white"/>
<path d="M19.9622 26.441L19.9448 26.446L15.6555 25.2871L15.3814 22.2153H11.5145L12.0541 28.2629L19.9435 30.4536L19.9622 30.4486V26.441Z" fill="#EBEBEB"/>
<path d="M24.7076 20.1267L24.244 25.2846L19.9485 26.4435V30.4511L27.8442 28.2629L27.9027 27.6124L28.5719 20.1267H24.7076Z" fill="white"/>
<path d="M19.9522 8.64212V12.494H10.6484L10.5711 11.6279L10.3954 9.67519L10.3032 8.64212H19.9522ZM19.9385 16.4381V20.29H15.7028L15.6256 19.4239L15.4511 17.4712L15.3589 16.4381H19.9385Z" fill="#EBEBEB"/>
</svg>
