<svg width="26" height="26" viewBox="0 0 26 26" fill="none" xmlns="http://www.w3.org/2000/svg">
<path d="M4.71252 19.9875L4.85065 19.795L11.3669 7.43358L11.3807 7.30276L8.50852 1.90776C8.45594 1.80911 8.37367 1.72948 8.27335 1.68015C8.17303 1.63082 8.05973 1.61429 7.9495 1.63289C7.83926 1.65148 7.73766 1.70427 7.65907 1.78378C7.58049 1.86329 7.52889 1.9655 7.51159 2.07595L4.71252 19.9875Z" fill="#FFC24A"/>
<path d="M4.79376 19.8412L4.89776 19.6381L11.3466 7.40512L8.4817 1.989C8.43446 1.89481 8.35796 1.81846 8.26368 1.77139C8.1694 1.72433 8.06241 1.70908 7.95874 1.72793C7.85506 1.74678 7.76028 1.79871 7.6886 1.87595C7.61692 1.95319 7.5722 2.05158 7.56114 2.15637L4.79376 19.8412Z" fill="#FFA712"/>
<path d="M13.4745 11.3831L15.613 9.18936L13.4737 5.1098C13.4266 5.022 13.3566 4.94861 13.2711 4.89745C13.1856 4.84629 13.0878 4.81927 12.9882 4.81927C12.8886 4.81927 12.7908 4.84629 12.7053 4.89745C12.6198 4.94861 12.5498 5.022 12.5027 5.1098L11.3596 7.28892V7.47499L13.4745 11.3831Z" fill="#F4BD62"/>
<path d="M13.4363 11.2937L15.5155 9.165L13.4363 5.2C13.4023 5.11417 13.3441 5.04002 13.2689 4.98649C13.1937 4.93295 13.1046 4.90232 13.0124 4.89828C12.9201 4.89425 12.8287 4.91698 12.7491 4.96374C12.6695 5.01049 12.6051 5.07928 12.5637 5.16181L11.4148 7.37912L11.3807 7.49206L13.4363 11.2937Z" fill="#FFA50E"/>
<path d="M4.71411 19.9883L4.77667 19.925L5.00336 19.8331L13.3396 11.5278L13.4452 11.2401L11.366 7.27676L4.71411 19.9883Z" fill="#F6820C"/>
<path d="M13.741 24.1768L21.2875 19.9688L19.1311 6.69989C19.1157 6.60635 19.0748 6.51888 19.0128 6.44708C18.9509 6.37528 18.8704 6.32193 18.7802 6.29288C18.6899 6.26383 18.5934 6.26021 18.5013 6.28242C18.4091 6.30463 18.3248 6.3518 18.2577 6.41876L4.71252 19.9875L12.2143 24.1759C12.4476 24.3061 12.7102 24.3744 12.9773 24.3744C13.2444 24.3744 13.507 24.3061 13.7402 24.1759" fill="#FDE068"/>
<path d="M21.2184 19.9339L19.0799 6.76487C19.0762 6.6754 19.0459 6.58907 18.9931 6.51679C18.9402 6.44451 18.8671 6.38954 18.783 6.35883C18.6989 6.32812 18.6075 6.32306 18.5205 6.34428C18.4335 6.36551 18.3548 6.41206 18.2943 6.47806L4.79376 19.9623L12.2127 24.1061C12.4441 24.2351 12.7046 24.3029 12.9695 24.3029C13.2345 24.3029 13.495 24.2351 13.7264 24.1061L21.2184 19.9339Z" fill="#FCCA3F"/>
<path d="M13.741 24.05C13.5078 24.1802 13.2452 24.2485 12.9781 24.2485C12.711 24.2485 12.4484 24.1802 12.2151 24.05L4.77427 19.9241L4.71252 19.9875L12.2143 24.1759C12.4476 24.3061 12.7102 24.3744 12.9773 24.3744C13.2444 24.3744 13.507 24.3061 13.7402 24.1759L21.2875 19.9688L21.2688 19.8551L13.741 24.05Z" fill="#EEAB37"/>
</svg>
