<svg width="26" height="35" viewBox="0 0 26 35" fill="none" xmlns="http://www.w3.org/2000/svg">
<g clip-path="url(#clip0_103_191)">
<path d="M0.413391 28.1288L0.62104 27.8383L10.4415 9.21413L10.4622 9.01695L6.13326 0.889696C5.77039 0.208914 4.74926 0.381065 4.63033 1.14318L0.413391 28.1288Z" fill="#FFC24A"/>
<path d="M0.53595 27.9073L0.692933 27.6012L10.4106 9.17221L6.09228 1.01191C5.73342 0.338261 4.82204 0.510021 4.70428 1.26412L0.53595 27.9073Z" fill="#FFA712"/>
<path d="M13.6181 15.1644L16.8414 11.8651L13.6171 5.71326C13.3111 5.13092 12.4565 5.12916 12.1537 5.71326L10.431 8.99664V9.27623L13.618 15.1644H13.6181Z" fill="#F4BD62"/>
<path d="M13.5606 15.027L16.6943 11.8194L13.5606 5.85551C13.2631 5.28939 12.5402 5.23005 12.2458 5.79783L10.5141 9.13224L10.4622 9.30273L13.5606 15.027Z" fill="#FFA50E"/>
<path d="M0.413391 28.1288L0.507483 28.0342L0.849424 27.8954L13.4156 15.3825L13.5749 14.9493L10.4401 8.97885L0.413391 28.1288Z" fill="#F6820C"/>
<path d="M14.0207 34.4394L25.3934 28.1001L22.1458 8.10921C22.0441 7.48376 21.2764 7.23653 20.8285 7.68494L0.413391 28.1289L11.7209 34.4389C12.0724 34.635 12.4682 34.738 12.8707 34.7381C13.2733 34.7382 13.6691 34.6354 14.0207 34.4394Z" fill="#FDE068"/>
<path d="M25.2915 28.0469L22.0685 8.20782C21.9677 7.58706 21.3292 7.33025 20.8847 7.77534L0.539551 28.0899L11.7229 34.3374C12.0717 34.532 12.4645 34.6343 12.864 34.6344C13.2635 34.6345 13.6563 34.5324 14.0052 34.338L25.2916 28.0468L25.2915 28.0469Z" fill="#FCCA3F"/>
<path d="M14.0206 34.2526C13.6691 34.4485 13.2732 34.5513 12.8707 34.5513C12.4682 34.5512 12.0724 34.4482 11.7209 34.2521L0.504476 28.0328L0.413513 28.1288L11.7209 34.4389C12.0724 34.635 12.4682 34.738 12.8707 34.7381C13.2733 34.7382 13.6692 34.6354 14.0207 34.4394L25.3934 28.1001L25.3656 27.9288L14.0207 34.2527L14.0206 34.2526Z" fill="#EEAB37"/>
</g>
<defs>
<clipPath id="clip0_103_191">
<rect width="25.0391" height="34.3129" fill="white" transform="translate(0.413391 0.463684)"/>
</clipPath>
</defs>
</svg>
