<svg width="34" height="35" viewBox="0 0 34 35" fill="none" xmlns="http://www.w3.org/2000/svg">
<g clip-path="url(#clip0_103_206)">
<path d="M33.3001 16.1262L18.5213 1.34809C17.6707 0.496967 16.2903 0.496967 15.4386 1.34809L12.3697 4.41699L16.2628 8.31004C17.1674 8.00434 18.2049 8.20942 18.926 8.93056C19.6506 9.65634 19.8542 10.7026 19.5411 11.6102L23.293 15.3622C24.2007 15.0495 25.248 15.2518 25.973 15.9779C26.9862 16.9908 26.9862 18.6323 25.973 19.6458C24.9595 20.6594 23.3179 20.6594 22.3039 19.6458C21.5418 18.8829 21.3535 17.7636 21.7393 16.8247L18.2404 13.3258L18.24 22.5334C18.4937 22.6588 18.7253 22.8245 18.926 23.024C19.9392 24.0368 19.9392 25.6785 18.926 26.6928C17.9125 27.7059 16.2702 27.7059 15.2581 26.6928C14.2449 25.6785 14.2449 24.0369 15.2581 23.0241C15.501 22.7812 15.7895 22.5888 16.1071 22.4581V13.1646C15.7891 13.0348 15.5003 12.8423 15.2581 12.5986C14.4905 11.8319 14.3059 10.7055 14.6992 9.76291L10.8616 5.92486L0.727994 16.0578C-0.123524 16.9097 -0.123524 18.2903 0.727994 19.1415L15.5071 33.9198C16.358 34.7711 17.7381 34.7711 18.59 33.9198L33.3 19.2101C34.1513 18.3586 34.1514 16.9773 33.3001 16.1262Z" fill="#DE4C36"/>
</g>
<defs>
<clipPath id="clip0_103_206">
<rect width="33.8492" height="33.8492" fill="white" transform="translate(0.0893555 0.709503)"/>
</clipPath>
</defs>
</svg>
