<svg width="25" height="25" viewBox="0 0 25 25" fill="none" xmlns="http://www.w3.org/2000/svg">
<path d="M12.5 2.08333C11.1321 2.08333 9.77752 2.35277 8.51371 2.87626C7.24991 3.39974 6.10158 4.16703 5.1343 5.13431C3.1808 7.08781 2.08333 9.73733 2.08333 12.5C2.08333 17.1042 5.07292 21.0104 9.20833 22.3958C9.72917 22.4792 9.89583 22.1562 9.89583 21.875V20.1146C7.01042 20.7396 6.39583 18.7188 6.39583 18.7188C5.91667 17.5104 5.23958 17.1875 5.23958 17.1875C4.29167 16.5417 5.3125 16.5625 5.3125 16.5625C6.35417 16.6354 6.90625 17.6354 6.90625 17.6354C7.8125 19.2188 9.34375 18.75 9.9375 18.5C10.0313 17.8229 10.3021 17.3646 10.5938 17.1042C8.28125 16.8438 5.85417 15.9479 5.85417 11.9792C5.85417 10.8229 6.25 9.89583 6.92708 9.15625C6.82292 8.89583 6.45833 7.8125 7.03125 6.40625C7.03125 6.40625 7.90625 6.125 9.89583 7.46875C10.7188 7.23958 11.6146 7.125 12.5 7.125C13.3854 7.125 14.2813 7.23958 15.1042 7.46875C17.0938 6.125 17.9688 6.40625 17.9688 6.40625C18.5417 7.8125 18.1771 8.89583 18.0729 9.15625C18.75 9.89583 19.1458 10.8229 19.1458 11.9792C19.1458 15.9583 16.7083 16.8333 14.3854 17.0938C14.7604 17.4167 15.1042 18.0521 15.1042 19.0208V21.875C15.1042 22.1562 15.2708 22.4896 15.8021 22.3958C19.9375 21 22.9167 17.1042 22.9167 12.5C22.9167 11.1321 22.6472 9.77752 22.1237 8.51371C21.6003 7.24991 20.833 6.10158 19.8657 5.13431C18.8984 4.16703 17.7501 3.39974 16.4863 2.87626C15.2225 2.35277 13.8679 2.08333 12.5 2.08333Z" fill="#F8F8F8"/>
</svg>
