<svg width="41" height="41" viewBox="0 0 41 41" fill="none" xmlns="http://www.w3.org/2000/svg">
<path d="M7.56195 34.8513L4.68298 2.5625H36.317L33.4342 34.8462L20.4808 38.4375L7.56195 34.8513Z" fill="#E44F26"/>
<path d="M20.5 35.6931L30.9678 32.791L33.4304 5.20316H20.5V35.6931Z" fill="#F1662A"/>
<path d="M20.5 17.1777H15.2597L14.8984 13.1226H20.5V9.16222H10.5703L10.6651 10.2257L11.6376 21.1381H20.5V17.1777ZM20.5 27.4623L20.4821 27.4674L16.072 26.2772L15.7901 23.1189H11.8144L12.3692 29.3355L20.4821 31.5879L20.5 31.5828V27.4623Z" fill="#EBEBEB"/>
<path d="M20.4859 17.1777V21.1381H25.3623L24.9037 26.2746L20.4859 27.4662V31.5867L28.6052 29.3355L28.6641 28.6667L29.5943 18.2412L29.6917 17.1777H20.4859ZM20.4859 9.16222V13.1226H30.0517L30.1312 12.2334L30.3118 10.2257L30.4066 9.16222H20.4859Z" fill="white"/>
</svg>
