<svg width="35" height="35" viewBox="0 0 35 35" fill="none" xmlns="http://www.w3.org/2000/svg">
<g clip-path="url(#clip0_103_188)">
<path d="M0 0H34.3129V34.3129H0V0Z" fill="#F7DF1E"/>
<path d="M9.02211 28.6743L11.6478 27.0852C12.1545 27.9833 12.6153 28.7433 13.7207 28.7433C14.7802 28.7433 15.4484 28.3289 15.4484 26.7167V15.7529H18.6729V26.7623C18.6729 30.102 16.7152 31.6222 13.8589 31.6222C11.2794 31.6222 9.78208 30.2863 9.02197 28.674M20.4243 28.3287L23.0498 26.8087C23.741 27.9374 24.6393 28.7665 26.2284 28.7665C27.5646 28.7665 28.4165 28.0985 28.4165 27.1771C28.4165 26.0716 27.5413 25.6799 26.0672 25.0352L25.2612 24.6894C22.9348 23.6993 21.3916 22.4555 21.3916 19.8297C21.3916 17.4112 23.2342 15.5685 26.1134 15.5685C28.1633 15.5685 29.6374 16.2826 30.6968 18.1483L28.1861 19.7607C27.6332 18.7703 27.0346 18.3788 26.1133 18.3788C25.1688 18.3788 24.57 18.9777 24.57 19.7607C24.57 20.728 25.1689 21.1198 26.5507 21.7187L27.3568 22.0641C30.0978 23.2389 31.641 24.4365 31.641 27.1311C31.641 30.0335 29.3608 31.6226 26.2974 31.6226C23.3032 31.6226 21.3684 30.1946 20.4242 28.3289" fill="black"/>
</g>
<defs>
<clipPath id="clip0_103_188">
<rect width="34.3129" height="34.3129" fill="white"/>
</clipPath>
</defs>
</svg>
