<svg width="23" height="23" viewBox="0 0 23 23" fill="none" xmlns="http://www.w3.org/2000/svg">
<g clip-path="url(#clip0_14_2)">
<path d="M0 0H23V23H0V0Z" fill="#F7DF1E"/>
<path d="M6.04758 19.2204L7.80761 18.1553C8.14722 18.7573 8.45611 19.2667 9.19705 19.2667C9.90726 19.2667 10.3551 18.9889 10.3551 17.9083V10.5592H12.5165V17.9388C12.5165 20.1775 11.2042 21.1965 9.28968 21.1965C7.56063 21.1965 6.55699 20.301 6.04749 19.2203M13.6905 18.9888L15.4504 17.9699C15.9137 18.7265 16.5158 19.2823 17.581 19.2823C18.4766 19.2823 19.0477 18.8345 19.0477 18.2169C19.0477 17.4759 18.461 17.2133 17.4729 16.7812L16.9327 16.5494C15.3733 15.8857 14.3389 15.052 14.3389 13.2919C14.3389 11.6708 15.574 10.4356 17.5039 10.4356C18.878 10.4356 19.8661 10.9143 20.5762 12.1648L18.8933 13.2457C18.5226 12.5818 18.1214 12.3194 17.5038 12.3194C16.8708 12.3194 16.4694 12.7208 16.4694 13.2457C16.4694 13.8941 16.8708 14.1567 17.7971 14.5581L18.3374 14.7896C20.1747 15.5771 21.2091 16.3799 21.2091 18.1861C21.2091 20.1315 19.6806 21.1967 17.6273 21.1967C15.6202 21.1967 14.3234 20.2395 13.6904 18.9889" fill="black"/>
</g>
<defs>
<clipPath id="clip0_14_2">
<rect width="23" height="23" fill="white"/>
</clipPath>
</defs>
</svg>
