<svg width="37" height="37" viewBox="0 0 37 37" fill="none" xmlns="http://www.w3.org/2000/svg">
<path d="M13.7256 22.6141L13.7808 22.641L13.8792 22.6885C14.0049 22.7483 14.1316 22.8076 14.2596 22.8645L14.34 22.9003C14.4868 22.9647 14.6345 23.0259 14.7839 23.0849L14.892 23.1272C15.03 23.181 15.1702 23.2331 15.3107 23.2826L15.3634 23.3007C15.5176 23.3545 15.6733 23.4045 15.8304 23.4535L15.9435 23.487C16.1032 23.5353 16.2608 23.5928 16.4257 23.6235C26.8868 25.5309 29.9252 17.3369 29.9252 17.3369C27.373 20.6618 22.843 21.5389 18.5509 20.5625C18.3883 20.5258 18.2303 20.4749 18.0718 20.428L17.9525 20.3919C17.7979 20.3445 17.6441 20.2945 17.4911 20.2419L17.4279 20.219C17.2916 20.1708 17.156 20.1205 17.0212 20.0682L16.9073 20.0236C16.7598 19.9656 16.6135 19.9047 16.4683 19.841L16.3805 19.8021C16.2564 19.7461 16.1329 19.6887 16.0101 19.6298L15.9028 19.5783C15.8067 19.5314 15.7114 19.4813 15.6164 19.4323L15.4252 19.3322C15.3097 19.27 15.1953 19.2058 15.0821 19.1396L14.9662 19.0749C14.8156 18.9858 14.6665 18.8944 14.5189 18.8007L14.3984 18.7206C14.2912 18.6518 14.1851 18.5813 14.0801 18.5091L13.9777 18.437C13.8764 18.3654 13.7762 18.293 13.6769 18.2195L13.5435 18.1185C13.4522 18.049 13.3618 17.9784 13.2722 17.9067L13.1512 17.8094C13.0373 17.7159 12.9245 17.621 12.8129 17.5246L12.776 17.4934C12.6555 17.388 12.5368 17.2804 12.42 17.1709L12.3198 17.0745C12.2331 16.9923 12.1481 16.9093 12.0643 16.8244L11.9641 16.7242C11.8579 16.6154 11.7534 16.5049 11.6507 16.3928L11.6353 16.3762C11.527 16.2576 11.421 16.137 11.3173 16.0145L11.2341 15.9154C11.1568 15.8224 11.0801 15.728 11.0054 15.6327L10.9215 15.5285C10.8318 15.4126 10.7437 15.2953 10.6574 15.1768C8.27465 11.9263 7.41839 7.44331 9.32293 3.76158L7.63474 5.90279C5.4715 9.01159 5.74108 13.0565 7.39321 16.3602L7.51426 16.5951L7.59182 16.7439L7.6399 16.8295L7.72604 16.9838C7.77726 17.0742 7.82964 17.1641 7.88344 17.2539L7.97358 17.4024C8.03311 17.4986 8.09407 17.5936 8.15674 17.6886L8.23458 17.8094C8.32072 17.9376 8.40887 18.0658 8.49959 18.1917L8.50731 18.2017L8.55196 18.2621C8.63066 18.3706 8.71165 18.4776 8.7935 18.5835L8.8845 18.6991C8.95748 18.791 9.03217 18.8826 9.10772 18.9736L9.19301 19.0752C9.2946 19.1951 9.3982 19.3141 9.50409 19.4306L9.51038 19.4372L9.5224 19.4504C9.62543 19.5631 9.73131 19.673 9.83835 19.7835L9.93965 19.8856C10.0226 19.9692 10.1068 20.0513 10.1921 20.1332L10.2954 20.2313C10.409 20.3384 10.5238 20.4434 10.6411 20.5464L10.6468 20.5507L10.7069 20.6022C10.8102 20.6915 10.9155 20.7805 11.0214 20.8678L11.1516 20.9714C11.2381 21.0407 11.3256 21.1091 11.4138 21.1763L11.5537 21.2828C11.651 21.3543 11.7489 21.4247 11.8476 21.4937L11.9549 21.5698L11.9844 21.5907C12.0783 21.6554 12.1742 21.7172 12.27 21.7793L12.3937 21.8617C12.5405 21.9547 12.6899 22.0466 12.8407 22.1353L12.9643 22.2051C13.0753 22.269 13.1867 22.3316 13.2997 22.3929L13.4852 22.489L13.7256 22.6141ZM14.7824 12.084C15.0168 12.42 15.2764 12.8195 15.5875 13.0897C15.7002 13.2139 15.8181 13.3347 15.9383 13.454L16.031 13.545C16.1481 13.6583 16.2669 13.7696 16.3893 13.8781L16.4042 13.8907L16.4077 13.8944C16.5436 14.0135 16.6838 14.1279 16.8263 14.2407L16.9216 14.3151C17.0647 14.4247 17.2104 14.5323 17.3598 14.6351L17.3727 14.6445L17.5724 14.7761L17.6674 14.8391C17.7742 14.9072 17.8821 14.9742 17.9922 15.0377L18.038 15.0643C18.1328 15.119 18.2289 15.1728 18.3251 15.2249L18.427 15.2784L18.6279 15.3823L18.6582 15.396C18.7961 15.4638 18.9352 15.5291 19.0772 15.5912L19.1696 15.6293C19.2829 15.6773 19.3977 15.7246 19.5127 15.7686L19.6598 15.8224C19.7646 15.8614 19.8693 15.8968 19.9752 15.932L20.118 15.9778C20.2685 16.0245 20.4171 16.0834 20.5739 16.1095C28.6505 17.4479 30.5153 11.2289 30.5153 11.2289C28.8342 13.6497 25.5792 14.8045 22.1055 13.903C21.952 13.8627 21.7995 13.8186 21.6482 13.7708L21.5106 13.7264C21.4032 13.6918 21.2965 13.6549 21.1906 13.6163L21.0464 13.5625C20.9308 13.5181 20.8159 13.4718 20.7018 13.4237L20.6091 13.3842C20.467 13.3224 20.3266 13.257 20.1878 13.1881L19.9763 13.0805L19.8544 13.0178C19.7646 12.9692 19.6753 12.9183 19.5871 12.867L19.5233 12.8307C19.4141 12.767 19.3061 12.7012 19.1994 12.6335L19.1018 12.568L18.8923 12.4295C18.7442 12.3267 18.5987 12.2203 18.4559 12.1104L18.3577 12.0328C16.8372 10.8328 15.6321 9.19188 15.0589 7.33141C14.4585 5.40255 14.5878 3.23672 15.6281 1.47928L14.35 3.28394C12.7857 5.53476 12.8707 8.54854 14.091 10.9293C14.2951 11.3294 14.5261 11.7152 14.7824 12.084ZM23.2955 9.2992L23.4961 9.36874L23.5845 9.39679C23.6798 9.42655 23.774 9.46146 23.8721 9.47978C28.3317 10.3415 29.5417 7.19118 29.8636 6.72757C28.8039 8.2532 27.0233 8.61923 24.8383 8.08893C24.6594 8.04341 24.4829 7.98897 24.3094 7.92581C24.0959 7.84991 23.8864 7.76298 23.6818 7.66539C23.2936 7.47859 22.9248 7.25359 22.5812 6.99372C20.626 5.50986 19.4114 2.68038 20.6872 0.375473L19.9969 1.32674C19.0749 2.6841 18.9841 4.36971 19.6241 5.86816C20.2989 7.45933 21.6817 8.70709 23.2955 9.2992ZM18.9907 27.5579H17.7813C17.7471 27.5592 17.7142 27.5715 17.6876 27.593C17.6609 27.6145 17.6419 27.6441 17.6334 27.6772L17.2041 29.6633L16.7748 31.6494C16.7664 31.6826 16.7474 31.7121 16.7208 31.7337C16.6942 31.7552 16.6614 31.7675 16.6272 31.7688H15.7712C14.9244 31.7688 15.0222 31.183 15.1957 30.3805L15.2008 30.3562L15.2197 30.2549L15.2231 30.236L15.2618 30.0299L15.3033 29.8093L15.3473 29.5846L15.5425 28.6311L15.738 27.6775C15.7417 27.663 15.742 27.6477 15.7388 27.633C15.7355 27.6184 15.7289 27.6046 15.7194 27.593C15.7099 27.5813 15.6978 27.572 15.6841 27.5659C15.6704 27.5598 15.6554 27.5569 15.6404 27.5576H14.3992C14.365 27.5589 14.3322 27.5712 14.3056 27.5928C14.2791 27.6144 14.2603 27.644 14.2521 27.6772L13.9851 28.9433L13.7184 30.2097L13.7178 30.2114L13.6932 30.3293C13.3859 31.7324 13.4671 33.0709 15.1379 33.113L15.1865 33.1138H17.8088C17.843 33.1125 17.8759 33.1002 17.9025 33.0787C17.9291 33.0572 17.948 33.0277 17.9565 32.9945L18.522 30.3361L19.0875 27.6775C19.1015 27.6117 19.058 27.5582 18.9907 27.5579ZM6.03928 27.5439H4.7114C4.67709 27.5452 4.64411 27.5575 4.61729 27.5789C4.59046 27.6003 4.57119 27.6298 4.5623 27.6629L4.43638 28.2187L4.31046 28.7745C4.29586 28.84 4.3385 28.8935 4.40575 28.8935H5.74394C5.77821 28.8922 5.81116 28.8799 5.83787 28.8584C5.86458 28.8369 5.88363 28.8074 5.89218 28.7742L6.01381 28.2187L6.13544 27.6632C6.14946 27.5977 6.10653 27.5439 6.03928 27.5439ZM5.65408 29.2736H4.31561C4.28131 29.2749 4.24836 29.2872 4.22154 29.3086C4.19472 29.3301 4.17544 29.3595 4.16651 29.3926L3.97848 30.2254L3.79075 31.0579L3.73838 31.2966L3.5578 32.1465L3.3775 32.9968C3.36348 33.0623 3.33458 33.1682 3.31311 33.2317C3.31311 33.2317 3.06299 33.9758 2.64259 33.9672L2.58993 33.9661L2.22619 33.9595C2.19202 33.9603 2.15873 33.9721 2.13173 33.993C2.10474 34.014 2.08519 34.0431 2.07595 34.076L1.93715 34.6595L1.79864 35.2427C1.7829 35.308 1.82525 35.3618 1.89193 35.3629C2.13032 35.3658 2.66434 35.3718 2.98744 35.3718C4.03744 35.3718 4.5912 34.79 4.94578 33.1158L5.36103 31.1944L5.75052 29.3923C5.76455 29.3274 5.72105 29.2736 5.65408 29.2736ZM30.2992 28.8231L30.2437 28.5939L30.189 28.3592L30.1613 28.2407C30.0525 27.818 29.7334 27.5745 29.0403 27.5745L27.9614 27.5733L26.9678 27.5719H25.8497C25.8155 27.5732 25.7826 27.5855 25.7561 27.607C25.7295 27.6285 25.7106 27.6581 25.7023 27.6913L25.6528 27.9248L25.5944 28.2007L25.5781 28.2782L25.0747 30.6364L24.5967 32.8749C24.5824 32.9407 24.5779 33.0214 24.5859 33.054C24.5939 33.0869 24.723 33.1138 24.7899 33.1138H25.7984C25.8657 33.1138 25.9507 33.1018 25.9873 33.0869C26.0239 33.072 26.078 32.9401 26.0915 32.8746L26.2706 31.9877L26.4501 31.1005L26.4503 31.0991L26.4744 30.9809L26.6919 29.9621L26.8839 29.0624C26.8924 29.0293 26.9113 28.9998 26.9378 28.9783C26.9644 28.9568 26.9972 28.9444 27.0313 28.943L30.2048 28.9416C30.272 28.9422 30.3144 28.8886 30.2992 28.8231ZM34.3845 26.7511L34.1401 26.752H33.1244C33.0872 26.7541 33.0509 26.7642 33.0179 26.7816C32.985 26.7991 32.9562 26.8234 32.9335 26.853L30.6873 30.1435C30.6495 30.1991 30.6063 30.1911 30.5914 30.1258L30.426 29.4009C30.4171 29.3677 30.3978 29.3382 30.3709 29.3168C30.344 29.2954 30.311 29.2831 30.2766 29.2819H28.8328C28.7656 29.2819 28.7258 29.3345 28.7441 29.3989L29.3912 31.6658C29.4095 31.7304 29.4109 31.8363 29.3943 31.9016L29.1124 32.9985C29.0955 33.0638 29.1367 33.1167 29.204 33.1167H30.6312C30.6657 33.1153 30.6989 33.1031 30.7262 33.082C30.7535 33.0608 30.7735 33.0316 30.7834 32.9985L31.0656 31.9016C31.0879 31.8243 31.123 31.7512 31.1695 31.6855L34.816 26.8459C34.8567 26.7921 34.8346 26.7483 34.7677 26.7489L34.3845 26.7511ZM22.9126 29.5898V29.5886C22.9076 29.6232 22.8905 29.6549 22.8644 29.678C22.8382 29.7011 22.8047 29.7142 22.7698 29.7148H20.9391C20.8755 29.7148 20.8435 29.6719 20.8529 29.6187L20.8546 29.6144L20.8535 29.615L20.8543 29.609L20.8626 29.5778C21.0375 29.113 21.3935 28.8079 22.0629 28.8079C22.8167 28.8077 22.9638 29.1757 22.9126 29.5898ZM22.3754 27.4766C20.0256 27.4766 19.4687 28.903 19.1561 30.3427C18.8439 31.8103 18.8705 33.1819 21.3025 33.1819H21.5973L21.6705 33.1817H21.6877L21.9796 33.1808H21.9848C22.627 33.1782 23.2712 33.1734 23.5319 33.1714C23.5658 33.1696 23.5984 33.157 23.6246 33.1354C23.6508 33.1137 23.6694 33.0842 23.6775 33.0512L23.776 32.5701L23.7952 32.4765L23.9125 31.9024C23.9162 31.8879 23.9165 31.8726 23.9133 31.858C23.91 31.8433 23.9034 31.8296 23.8939 31.818C23.8844 31.8063 23.8723 31.7971 23.8586 31.791C23.8449 31.7849 23.8299 31.7821 23.8149 31.7828H21.6288C20.759 31.7828 20.5009 31.5518 20.5962 30.8725H24.0908L24.0905 30.8727L24.0928 30.8725C24.1204 30.8713 24.1471 30.8621 24.1697 30.8461C24.1923 30.8301 24.2098 30.808 24.2201 30.7823L24.2284 30.752L24.2281 30.7523C24.747 28.7951 24.5982 27.4769 22.3754 27.4766ZM11.2687 29.5823L11.2355 29.6994L10.9716 30.6349L10.7078 31.5699C10.697 31.603 10.6763 31.632 10.6485 31.6531C10.6207 31.6741 10.5872 31.6861 10.5524 31.6875H9.1558C8.09636 31.6875 7.83822 30.8587 8.09636 29.6367C8.35421 28.3867 8.85989 27.6097 9.90274 27.531C11.3279 27.4234 11.613 28.4256 11.2687 29.5823ZM12.2268 31.6157C12.2268 31.6157 12.8853 30.0165 13.0347 29.0933C13.2388 27.8572 12.6197 26.064 10.229 26.064C7.85196 26.064 6.81941 27.7757 6.42563 29.6367C6.03184 31.5112 6.54783 33.1548 8.9114 33.1413L10.7762 33.1344L12.5187 33.1281C12.5533 33.1264 12.5864 33.1141 12.6138 33.0929C12.6411 33.0718 12.6613 33.0427 12.6715 33.0097L12.9752 31.8518C12.9921 31.7865 12.9511 31.7333 12.8839 31.7327L12.5928 31.731L12.3018 31.7293C12.2449 31.729 12.2122 31.6918 12.2191 31.6429L12.2268 31.6157ZM23.9946 30.5451C23.9946 30.5556 23.9926 30.566 23.9886 30.5757C23.9846 30.5855 23.9787 30.5943 23.9713 30.6018C23.9638 30.6092 23.955 30.6151 23.9453 30.6192C23.9356 30.6232 23.9252 30.6253 23.9146 30.6253C23.9041 30.6254 23.8937 30.6233 23.884 30.6193C23.8742 30.6153 23.8654 30.6094 23.8579 30.602C23.8505 30.5945 23.8446 30.5857 23.8405 30.576C23.8365 30.5663 23.8344 30.5559 23.8344 30.5453C23.8343 30.5241 23.8427 30.5037 23.8577 30.4886C23.8727 30.4736 23.8931 30.4651 23.9143 30.4651C23.9356 30.465 23.956 30.4734 23.971 30.4884C23.9861 30.5034 23.9946 30.5238 23.9946 30.5451Z" fill="#F8F8F8"/>
</svg>
