<svg width="23" height="23" viewBox="0 0 23 23" fill="none" xmlns="http://www.w3.org/2000/svg">
<g clip-path="url(#clip0_15_56)">
<path d="M17.6094 0H5.39062C2.41347 0 0 2.41347 0 5.39062V17.6094C0 20.5865 2.41347 23 5.39062 23H17.6094C20.5865 23 23 20.5865 23 17.6094V5.39062C23 2.41347 20.5865 0 17.6094 0Z" fill="#242938"/>
<path d="M11.5001 13.2026C12.4259 13.2026 13.1762 12.4522 13.1762 11.5265C13.1762 10.6008 12.4259 9.85037 11.5001 9.85037C10.5744 9.85037 9.82397 10.6008 9.82397 11.5265C9.82397 12.4522 10.5744 13.2026 11.5001 13.2026Z" fill="#00D8FF"/>
<path d="M11.5002 8.11856C13.7506 8.11856 15.8412 8.44146 17.4175 8.98421C19.3167 9.638 20.4844 10.6291 20.4844 11.5265C20.4844 12.4617 19.2469 13.5146 17.2073 14.1903C15.6654 14.7011 13.6364 14.9678 11.5002 14.9678C9.30997 14.9678 7.23593 14.7175 5.6766 14.1846C3.70381 13.5104 2.51562 12.4439 2.51562 11.5265C2.51562 10.6363 3.63059 9.65291 5.50311 9.00011C7.08526 8.44847 9.2274 8.11856 11.4998 8.11856H11.5002Z" stroke="#00D8FF" stroke-width="0.696172"/>
<path d="M8.53342 9.83232C9.65773 7.88289 10.9818 6.23318 12.2394 5.13888C13.7545 3.82025 15.1965 3.30382 15.9738 3.75205C16.784 4.21924 17.0778 5.81738 16.6443 7.9217C16.3169 9.51256 15.534 11.4034 14.4667 13.254C13.3725 15.1513 12.1196 16.823 10.8792 17.9072C9.30949 19.2793 7.79194 19.7759 6.99728 19.3176C6.22615 18.8732 5.93128 17.4158 6.30126 15.4676C6.61382 13.8214 7.39825 11.8009 8.53306 9.83232H8.53342Z" stroke="#00D8FF" stroke-width="0.696172"/>
<path d="M8.53624 13.259C7.40879 11.3117 6.64116 9.34033 6.32078 7.70427C5.93508 5.73301 6.20775 4.22588 6.98445 3.7763C7.79386 3.30768 9.32506 3.85123 10.9316 5.27777C12.1463 6.35626 13.3936 7.97856 14.4639 9.82737C15.5613 11.7229 16.3837 13.6433 16.7037 15.2594C17.1085 17.3046 16.7808 18.8673 15.9869 19.3268C15.2166 19.7728 13.8068 19.3007 12.3037 18.0071C11.0336 16.9142 9.67483 15.2256 8.53624 13.259Z" stroke="#00D8FF" stroke-width="0.696172"/>
</g>
<defs>
<clipPath id="clip0_15_56">
<rect width="23" height="23" fill="white"/>
</clipPath>
</defs>
</svg>
