<svg width="37" height="37" viewBox="0 0 37 37" fill="none" xmlns="http://www.w3.org/2000/svg">
<path d="M18.0838 21.305C19.8628 21.305 21.305 19.8628 21.305 18.0838C21.305 16.3048 19.8628 14.8626 18.0838 14.8626C16.3048 14.8626 14.8626 16.3048 14.8626 18.0838C14.8626 19.8628 16.3048 21.305 18.0838 21.305Z" fill="#61DAFB"/>
<path d="M30.3186 12.7717C29.697 12.5456 29.0471 12.3196 28.3689 12.1218C28.5385 11.4437 28.6798 10.7655 28.7928 10.1156C29.3862 6.38584 28.7363 3.75804 26.9279 2.74082C26.391 2.43001 25.7977 2.28873 25.1195 2.28873C23.1416 2.28873 20.6268 3.75804 18.0838 6.2163C15.5408 3.75804 13.026 2.28873 11.0481 2.28873C10.3699 2.28873 9.77654 2.43001 9.23968 2.74082C7.4313 3.78629 6.78141 6.41409 7.37479 10.1156C7.48781 10.7655 7.62909 11.4437 7.79862 12.1218C7.12048 12.3196 6.4706 12.5174 5.84897 12.7717C2.31697 14.128 0.395569 15.9929 0.395569 18.0838C0.395569 20.1747 2.34523 22.0396 5.84897 23.3959C6.4706 23.622 7.12048 23.848 7.79862 24.0458C7.62909 24.7239 7.48781 25.4021 7.37479 26.052C6.78141 29.7817 7.4313 32.4096 9.23968 33.4268C9.77654 33.7376 10.3699 33.8789 11.0481 33.8789C13.0542 33.8789 15.569 32.4096 18.0838 29.9513C20.6268 32.4096 23.1416 33.8789 25.1195 33.8789C25.7977 33.8789 26.391 33.7376 26.9279 33.4268C28.7363 32.3813 29.3862 29.7535 28.7928 26.052C28.6798 25.4021 28.5385 24.7239 28.3689 24.0458C29.0471 23.848 29.697 23.6502 30.3186 23.3959C33.8506 22.0396 35.772 20.1747 35.772 18.0838C35.772 15.9929 33.8506 14.128 30.3186 12.7717ZM26.1367 4.15362C27.2952 4.83176 27.6908 6.9227 27.2105 9.88957C27.1257 10.4829 26.9844 11.1046 26.8149 11.7545C25.3456 11.4154 23.7915 11.1893 22.1526 11.0481C21.1919 9.69178 20.203 8.47678 19.214 7.37479C21.305 5.31211 23.4242 3.89931 25.1478 3.89931C25.5151 3.89931 25.8542 3.98408 26.1367 4.15362ZM22.9721 20.9094C22.4635 21.8136 21.8701 22.7178 21.2485 23.622C20.203 23.7067 19.1575 23.735 18.0838 23.735C16.9818 23.735 15.9363 23.7067 14.9191 23.622C14.2975 22.7178 13.7324 21.8136 13.2238 20.9094C12.6869 19.9769 12.1783 19.0162 11.7262 18.0838C12.1783 17.1513 12.6869 16.1906 13.2238 15.2582C13.7324 14.354 14.3257 13.4498 14.9474 12.5456C15.9928 12.4609 17.0383 12.4326 18.112 12.4326C19.214 12.4326 20.2595 12.4609 21.2767 12.5456C21.8983 13.4498 22.4635 14.354 22.9721 15.2582C23.5089 16.1906 24.0175 17.1513 24.4696 18.0838C23.9893 19.0162 23.5089 19.9487 22.9721 20.9094ZM25.3173 19.9769C25.7411 20.9659 26.0802 21.9266 26.391 22.8873C25.4303 23.1133 24.4131 23.2829 23.3394 23.4242C23.6785 22.8873 24.0458 22.3222 24.3566 21.7288C24.6957 21.1354 25.0065 20.5421 25.3173 19.9769ZM18.0838 27.6343C17.4056 26.8996 16.7558 26.1085 16.1341 25.2891C16.784 25.3173 17.4339 25.3456 18.0838 25.3456C18.7337 25.3456 19.3836 25.3173 20.0334 25.2891C19.4118 26.1085 18.7619 26.8996 18.0838 27.6343ZM12.8282 23.3959C11.7545 23.2546 10.7372 23.0851 9.77654 22.859C10.0874 21.9266 10.4264 20.9376 10.8503 19.9487C11.1611 20.5138 11.4719 21.1072 11.811 21.6723C12.15 22.2939 12.4891 22.8308 12.8282 23.3959ZM10.8503 16.1906C10.4264 15.2017 10.0874 14.241 9.77654 13.2803C10.7372 13.0542 11.7545 12.8847 12.8282 12.7434C12.4891 13.2803 12.1218 13.8454 11.811 14.4388C11.4719 15.0322 11.1611 15.6255 10.8503 16.1906ZM18.0838 8.53329C18.7619 9.26794 19.4118 10.0591 20.0334 10.8785C19.3836 10.8503 18.7337 10.822 18.0838 10.822C17.4339 10.822 16.784 10.8503 16.1341 10.8785C16.7558 10.0591 17.4056 9.26794 18.0838 8.53329ZM24.3566 14.467L23.3394 12.7717C24.4131 12.913 25.4303 13.0825 26.391 13.3085C26.0802 14.241 25.7411 15.2299 25.3173 16.2189C25.0065 15.6255 24.6957 15.0322 24.3566 14.467ZM8.95712 9.88957C8.47677 6.9227 8.87235 4.83176 10.0308 4.15362C10.3134 3.98408 10.6525 3.89931 11.0198 3.89931C12.7152 3.89931 14.8344 5.28386 16.9535 7.37479C15.9646 8.44852 14.9756 9.69178 14.0149 11.0481C12.3761 11.1893 10.822 11.4436 9.3527 11.7545C9.18317 11.1046 9.07014 10.4829 8.95712 9.88957ZM1.9779 18.0838C1.9779 16.7558 3.58849 15.343 6.41408 14.2975C6.9792 14.0715 7.60083 13.8737 8.22246 13.7041C8.67456 15.1169 9.23968 16.6145 9.91782 18.112C9.23968 19.6096 8.6463 21.0789 8.22246 22.4917C4.32314 21.3615 1.9779 19.6661 1.9779 18.0838ZM10.0308 32.014C8.87235 31.3358 8.47677 29.2449 8.95712 26.278C9.04189 25.6846 9.18317 25.063 9.3527 24.4131C10.822 24.7522 12.3761 24.9782 14.0149 25.1195C14.9756 26.4758 15.9646 27.6908 16.9535 28.7928C14.8626 30.8555 12.7434 32.2683 11.0198 32.2683C10.6525 32.2683 10.3134 32.1835 10.0308 32.014ZM27.2105 26.278C27.6908 29.2449 27.2952 31.3358 26.1367 32.014C25.8542 32.1835 25.5151 32.2683 25.1478 32.2683C23.4524 32.2683 21.3332 30.8837 19.214 28.7928C20.203 27.7191 21.1919 26.4758 22.1526 25.1195C23.7915 24.9782 25.3456 24.7239 26.8149 24.4131C26.9844 25.063 27.0974 25.6846 27.2105 26.278ZM29.7535 21.8701C29.1884 22.0961 28.5667 22.2939 27.9451 22.4635C27.493 21.0507 26.9279 19.5531 26.2498 18.0555C26.9279 16.558 27.5213 15.0887 27.9451 13.6759C31.8444 14.8061 34.1897 16.5015 34.1897 18.0838C34.1897 19.4118 32.5508 20.8246 29.7535 21.8701Z" fill="#61DAFB"/>
</svg>
