<svg width="38" height="38" viewBox="0 0 38 38" fill="none" xmlns="http://www.w3.org/2000/svg">
<path fill-rule="evenodd" clip-rule="evenodd" d="M18.5475 2.34741C21.7573 2.34741 24.895 3.31113 27.5638 5.11669C30.2327 6.92225 32.3128 9.48856 33.5412 12.4911C34.7695 15.4936 35.0909 18.7976 34.4647 21.985C33.8385 25.1725 32.2928 28.1004 30.0231 30.3984C27.7535 32.6965 24.8617 34.2615 21.7136 34.8955C18.5655 35.5295 15.3024 35.2041 12.3369 33.9604C9.37141 32.7167 6.83678 30.6106 5.05351 27.9084C3.27024 25.2062 2.31842 22.0293 2.31842 18.7793C2.31842 14.4213 4.02826 10.2418 7.0718 7.16021C10.1153 4.07863 14.2433 2.34741 18.5475 2.34741Z" fill="#CC6699"/>
<path d="M28.7277 9.38028C27.9928 6.46244 23.2133 5.50704 18.6901 7.12911C15.8573 8.0929 13.2401 9.6129 10.9882 11.6021C8.49706 13.9613 8.09945 16.0153 8.2629 16.8732C8.84251 19.9014 12.938 21.8803 14.6224 23.3486V23.3568C14.1262 23.6044 10.4909 25.4695 9.63773 27.3709C8.7405 29.3803 9.78031 30.8216 10.47 31.0152C11.5056 31.2677 12.5932 31.1855 13.5803 30.7803C14.5674 30.3751 15.4045 29.6672 15.974 28.7558C16.4447 28.0175 16.7392 27.1783 16.8342 26.3048C16.9291 25.4313 16.822 24.5473 16.5212 23.723C17.3325 23.5143 18.1758 23.4653 19.0054 23.5786C21.8524 23.9155 22.4111 25.7148 22.3045 26.4683C22.2543 26.7365 22.1477 26.9907 21.9919 27.2134C21.8361 27.4362 21.6347 27.6224 21.4015 27.7594C21.2021 27.885 21.1406 27.9272 21.158 28.0211C21.1824 28.1561 21.274 28.1514 21.4444 28.122C21.8722 27.9856 22.2492 27.7212 22.5256 27.3635C22.8021 27.0059 22.9651 26.5718 22.9931 26.1185C23.0615 24.358 21.391 22.3791 18.4327 22.4296C17.5735 22.4047 16.7161 22.5237 15.8952 22.7817C15.8541 22.7341 15.8124 22.6872 15.77 22.6408C13.9407 20.6655 10.5605 19.2676 10.7031 16.6115C10.7552 15.6455 11.0868 13.1033 17.1947 10.0188C22.2025 7.49178 26.2111 8.18779 26.9043 9.72887C27.8943 11.9307 24.762 16.0211 19.5618 16.6115C18.987 16.7296 18.3934 16.7152 17.8248 16.5693C17.2563 16.4235 16.7275 16.1498 16.2777 15.7688C16.0042 15.4636 15.9636 15.4507 15.8616 15.507C15.6958 15.5998 15.8013 15.8697 15.8616 16.0293C16.0607 16.3927 16.3295 16.7121 16.6522 16.9689C16.9748 17.2257 17.3449 17.4146 17.7407 17.5246C19.7853 17.9745 21.9179 17.7609 23.8358 16.9143C26.9901 15.6831 29.4499 12.25 28.7277 9.38028ZM15.3225 24.2523C15.5528 25.056 15.5411 25.9109 15.2889 26.7077C15.2619 26.7907 15.2321 26.8728 15.1997 26.9542C15.1672 27.0356 15.132 27.1138 15.0942 27.189C14.8991 27.5931 14.6464 27.966 14.3442 28.2958C13.4017 29.3368 12.0837 29.7312 11.5191 29.399C10.9094 29.0411 11.2143 27.5728 12.3074 26.4026C13.1474 25.5616 14.1158 24.8633 15.1753 24.3345L15.3225 24.2523Z" fill="white"/>
</svg>
