<svg width="26" height="26" viewBox="0 0 26 26" fill="none" xmlns="http://www.w3.org/2000/svg">
<path fill-rule="evenodd" clip-rule="evenodd" d="M13 1.625C15.2498 1.625 17.449 2.29213 19.3196 3.54203C21.1902 4.79193 22.6482 6.56847 23.5091 8.64698C24.3701 10.7255 24.5953 13.0126 24.1564 15.2192C23.7175 17.4257 22.6342 19.4525 21.0433 21.0433C19.4525 22.6342 17.4257 23.7175 15.2192 24.1564C13.0126 24.5953 10.7255 24.3701 8.64698 23.5091C6.56847 22.6482 4.79193 21.1902 3.54203 19.3196C2.29213 17.449 1.625 15.2498 1.625 13C1.625 9.98316 2.82343 7.08989 4.95666 4.95666C7.08989 2.82343 9.98316 1.625 13 1.625Z" fill="#CC6699"/>
<path d="M20.1353 6.49349C19.6202 4.47362 16.2703 3.81224 13.0999 4.93512C11.1144 5.6023 9.27999 6.65452 7.70166 8.03155C5.9556 9.66468 5.67691 11.0866 5.79147 11.6805C6.19772 13.7767 9.06829 15.1466 10.2488 16.1631V16.1687C9.9011 16.3402 7.3531 17.6312 6.7551 18.9475C6.12622 20.3385 6.85504 21.3362 7.33847 21.4703C8.0643 21.645 8.82661 21.5882 9.51847 21.3077C10.2103 21.0272 10.797 20.5371 11.1962 19.9062C11.5261 19.3951 11.7326 18.8142 11.7991 18.2095C11.8657 17.6048 11.7906 16.9929 11.5797 16.4222C12.1484 16.2778 12.7395 16.2438 13.3209 16.3223C15.3164 16.5555 15.708 17.8011 15.6333 18.3227C15.5981 18.5084 15.5234 18.6843 15.4142 18.8385C15.305 18.9927 15.1638 19.1216 15.0003 19.2164C14.8606 19.3034 14.8175 19.3326 14.8297 19.3976C14.8468 19.4911 14.911 19.4878 15.0304 19.4675C15.3303 19.373 15.5945 19.19 15.7883 18.9424C15.9821 18.6948 16.0963 18.3943 16.1159 18.0806C16.1638 16.8618 14.993 15.4919 12.9195 15.5269C12.3173 15.5097 11.7164 15.592 11.141 15.7706C11.1122 15.7377 11.0829 15.7052 11.0532 15.6731C9.7711 14.3057 7.40185 13.338 7.50179 11.4993C7.53835 10.8306 7.77072 9.07074 12.0518 6.93549C15.5618 5.18618 18.3714 5.66799 18.8573 6.7348C19.5512 8.25905 17.3558 11.0906 13.7109 11.4993C13.3081 11.5811 12.8919 11.5711 12.4935 11.4701C12.095 11.3691 11.7244 11.1797 11.4091 10.9159C11.2173 10.7047 11.1889 10.6957 11.1174 10.7347C11.0012 10.7989 11.0752 10.9858 11.1174 11.0963C11.257 11.3478 11.4454 11.569 11.6715 11.7467C11.8977 11.9245 12.1571 12.0553 12.4345 12.1314C13.8675 12.4428 15.3623 12.295 16.7066 11.7089C18.9174 10.8566 20.6415 8.48005 20.1353 6.49349ZM10.7396 16.7887C10.901 17.345 10.8928 17.9368 10.716 18.4884C10.6971 18.5458 10.6762 18.6027 10.6535 18.6591C10.6307 18.7154 10.6061 18.7696 10.5795 18.8216C10.4428 19.1013 10.2657 19.3595 10.0538 19.5877C9.39328 20.3084 8.46947 20.5814 8.07379 20.3515C7.64641 20.1037 7.8601 19.0872 8.62629 18.2772C9.21501 17.695 9.89376 17.2116 10.6364 16.8456L10.7396 16.7887Z" fill="white"/>
</svg>
