<svg width="25" height="24" viewBox="0 0 25 24" fill="none" xmlns="http://www.w3.org/2000/svg">
<path d="M10.4164 14L21.8748 3M10.4164 14L14.0623 21C14.108 21.0957 14.1813 21.1769 14.2737 21.2338C14.366 21.2906 14.4734 21.3209 14.5831 21.3209C14.6928 21.3209 14.8002 21.2906 14.8925 21.2338C14.9849 21.1769 15.0582 21.0957 15.1039 21L21.8748 3M10.4164 14L3.12477 10.5C3.02504 10.4561 2.94052 10.3857 2.88127 10.2971C2.82202 10.2084 2.79053 10.1053 2.79053 10C2.79053 9.89468 2.82202 9.79158 2.88127 9.70295C2.94052 9.61431 3.02504 9.54387 3.12477 9.5L21.8748 3" stroke="#FF5C00" stroke-width="2" stroke-linecap="round" stroke-linejoin="round"/>
</svg>
