<svg width="23" height="23" viewBox="0 0 23 23" fill="none" xmlns="http://www.w3.org/2000/svg">
<g clip-path="url(#clip0_15_20)">
<path d="M17.6094 0H5.39062C2.41347 0 0 2.41347 0 5.39062V17.6094C0 20.5865 2.41347 23 5.39062 23H17.6094C20.5865 23 23 20.5865 23 17.6094V5.39062C23 2.41347 20.5865 0 17.6094 0Z" fill="#242938"/>
<path fill-rule="evenodd" clip-rule="evenodd" d="M7.45703 9.88281C7.99609 7.72656 9.34384 6.64844 11.5 6.64844C14.7344 6.64844 15.1387 9.07422 16.7559 9.47852C17.8341 9.74814 18.7773 9.34384 19.5859 8.26562C19.047 10.4218 17.6991 11.5 15.543 11.5C12.3086 11.5 11.9043 9.07422 10.2871 8.66992C9.20889 8.40039 8.26562 8.80469 7.45703 9.88281ZM3.41406 14.7344C3.95312 12.5782 5.30078 11.5 7.45703 11.5C10.6914 11.5 11.0957 13.9258 12.7129 14.3301C13.7911 14.5997 14.7344 14.1954 15.543 13.1172C15.004 15.2733 13.6562 16.3516 11.5 16.3516C8.26562 16.3516 7.86133 13.9258 6.24414 13.5215C5.16602 13.2519 4.22266 13.6562 3.41406 14.7344Z" fill="url(#paint0_linear_15_20)"/>
</g>
<defs>
<linearGradient id="paint0_linear_15_20" x1="7.77148" y1="6.64844" x2="14.6895" y2="16.666" gradientUnits="userSpaceOnUse">
<stop stop-color="#32B1C1"/>
<stop offset="1" stop-color="#14C6B7"/>
</linearGradient>
<clipPath id="clip0_15_20">
<rect width="23" height="23" fill="white"/>
</clipPath>
</defs>
</svg>
