<svg width="36" height="36" viewBox="0 0 36 36" fill="none" xmlns="http://www.w3.org/2000/svg">
<path d="M6.24139 12.9398H33.682V33.2222H6.24139V12.9398Z" fill="white"/>
<path d="M0.412964 17.5953V34.8025H34.8272V0.388199H0.412964V17.5953ZM28.1454 16.2188C28.9696 16.41 29.7188 16.8411 30.2983 17.4577C30.6174 17.7898 30.8947 18.1596 31.1243 18.5589C31.1243 18.603 29.6376 19.6079 28.7318 20.1695C28.6987 20.1916 28.5666 20.0484 28.4207 19.8309C28.2553 19.5456 28.0204 19.3068 27.7378 19.1369C27.4552 18.9669 27.1341 18.8713 26.8046 18.859C25.7611 18.7874 25.0894 19.3353 25.0949 20.2356C25.0863 20.4597 25.1376 20.6821 25.2436 20.8798C25.4721 21.3561 25.8988 21.6397 27.2368 22.2179C29.7009 23.2778 30.7553 23.9771 31.4106 24.971C32.1429 26.0723 32.3054 27.8508 31.8098 29.1668C31.2592 30.5984 29.9101 31.5703 28.0022 31.8924C27.1308 31.9922 26.2503 31.983 25.3812 31.8649C24.0491 31.6453 22.8221 31.0057 21.8792 30.0395C21.5626 29.6899 20.9459 28.7786 20.9844 28.7125C21.0849 28.6379 21.1908 28.5707 21.3011 28.5115L22.5758 27.8067L23.5641 27.2341L23.7706 27.5397C24.1191 28.0382 24.5626 28.4629 25.0756 28.7896C26.1769 29.3678 27.6801 29.2879 28.4234 28.6189C28.673 28.3738 28.8287 28.0489 28.8634 27.7007C28.8981 27.3526 28.8097 27.0034 28.6134 26.7137C28.3381 26.3311 27.7875 26.0089 26.2485 25.3372C24.4727 24.5718 23.7073 24.0983 23.008 23.3439C22.5714 22.8461 22.2491 22.2588 22.0637 21.6232C21.9253 20.897 21.9049 20.1533 22.0031 19.4207C22.3693 17.7055 23.655 16.5078 25.5326 16.1527C26.4022 16.0451 27.283 16.0692 28.1454 16.2243V16.2188ZM20.0676 17.6614V19.071H15.5993V31.7988H12.4304V19.0683H7.95107V17.6917C7.93712 17.217 7.94814 16.7419 7.98411 16.2683C8.00613 16.2435 10.7372 16.2435 14.041 16.2435H20.0511L20.0676 17.6614Z" fill="#007ACC"/>
</svg>
