<svg width="37" height="37" viewBox="0 0 37 37" fill="none" xmlns="http://www.w3.org/2000/svg">
<path d="M35.7057 5.94951L19.2669 35.3455C18.9272 35.9525 18.0552 35.956 17.7109 35.3524L0.945802 5.95294C0.570045 5.29415 1.13239 4.49713 1.87904 4.63021L18.3356 7.5713C18.4407 7.59047 18.5483 7.59047 18.6533 7.5713L34.7654 4.63479C35.5089 4.49942 36.0746 5.28986 35.7057 5.94951Z" fill="url(#paint0_linear_103_175)"/>
<path d="M26.1742 0.409245L14.0097 2.79257C13.9126 2.81154 13.8246 2.86222 13.7594 2.93666C13.6943 3.01109 13.6557 3.10506 13.6497 3.20381L12.9008 15.8439C12.8968 15.9132 12.9089 15.9825 12.9363 16.0463C12.9637 16.1101 13.0056 16.1667 13.0586 16.2115C13.1117 16.2563 13.1744 16.2881 13.2419 16.3045C13.3093 16.3209 13.3797 16.3213 13.4474 16.3058L16.8346 15.5231C16.9076 15.5063 16.9836 15.5081 17.0556 15.5284C17.1277 15.5486 17.1935 15.5866 17.2471 15.6389C17.3006 15.6912 17.3402 15.7561 17.3621 15.8277C17.3841 15.8993 17.3877 15.9752 17.3727 16.0485L16.3662 20.9763C16.3508 21.0521 16.3553 21.1307 16.3794 21.2042C16.4035 21.2778 16.4463 21.3438 16.5035 21.3959C16.5608 21.4479 16.6306 21.4842 16.7061 21.5012C16.7816 21.5182 16.8602 21.5153 16.9342 21.4928L19.0256 20.8567C19.3499 20.7582 19.6618 21.0432 19.5937 21.3752L17.994 29.1156C17.8944 29.5998 18.5383 29.8637 18.8067 29.4487L18.9856 29.1717L28.8989 9.38792C29.0655 9.05595 28.7784 8.67819 28.4153 8.74859L24.9281 9.42169C24.8531 9.43626 24.7756 9.43131 24.703 9.40729C24.6304 9.38327 24.5653 9.341 24.5137 9.28453C24.4622 9.22807 24.4261 9.1593 24.4088 9.08484C24.3915 9.01038 24.3937 8.93273 24.415 8.85934L26.6902 0.971593C26.7116 0.897942 26.7136 0.820023 26.6961 0.745347C26.6787 0.670671 26.6422 0.601756 26.5904 0.545246C26.5385 0.488736 26.473 0.446537 26.4001 0.422716C26.3272 0.398895 26.2494 0.394255 26.1742 0.409245Z" fill="url(#paint1_linear_103_175)"/>
<defs>
<linearGradient id="paint0_linear_103_175" x1="0.536047" y1="3.5798" x2="20.9963" y2="31.3664" gradientUnits="userSpaceOnUse">
<stop stop-color="#41D1FF"/>
<stop offset="1" stop-color="#BD34FE"/>
</linearGradient>
<linearGradient id="paint1_linear_103_175" x1="17.3913" y1="1.05601" x2="21.0924" y2="26.4456" gradientUnits="userSpaceOnUse">
<stop stop-color="#FFEA83"/>
<stop offset="0.083" stop-color="#FFDD35"/>
<stop offset="1" stop-color="#FFA800"/>
</linearGradient>
</defs>
</svg>
