<svg width="40" height="40" viewBox="0 0 40 40" fill="none" xmlns="http://www.w3.org/2000/svg">
<g clip-path="url(#clip0_103_203)">
<path d="M36.5175 30.315L20.9833 39.1091V32.2594L30.6477 26.9373L36.5175 30.315ZM37.5825 29.3534V10.9771L31.8983 14.2634V26.0731L37.5795 29.3504L37.5825 29.3534ZM4.08578 30.315L19.6048 39.103V32.2594L9.93737 26.9373L4.08578 30.315ZM3.02075 29.3534V10.9771L8.70498 14.2634V26.0731L3.02075 29.3534ZM3.68716 9.78727L19.62 0.767975V7.38943L9.41094 13.0037L9.32878 13.0493L3.68716 9.78727ZM36.9101 9.78727L20.9833 0.767975V7.38943L31.1924 13.0006L31.2745 13.0463L36.9161 9.78727H36.9101Z" fill="#8ED6FB"/>
<path d="M19.62 30.7014L10.0682 25.4463V15.0455L19.62 20.5471V30.7014ZM20.9833 30.7014L30.5351 25.4524V15.0455L20.9833 20.5471V30.7014ZM10.7164 13.8526L20.3017 8.57617L29.887 13.8526L20.3017 19.3786L10.7164 13.8526Z" fill="#1C78C0"/>
</g>
<defs>
<clipPath id="clip0_103_203">
<rect width="38.9497" height="38.9497" fill="white" transform="translate(0.826782 0.463684)"/>
</clipPath>
</defs>
</svg>
